<svg id="Componente_50_1" data-name="Componente 50 – 1" xmlns="http://www.w3.org/2000/svg" width="98" height="98" viewBox="0 0 98 98">
  <rect id="Retângulo_17244" data-name="Retângulo 17244" width="98" height="98" rx="10" fill="#008dcb"/>
  <g id="book-01" transform="translate(-29.606 -15.433)">
    <path id="Caminho_28902" data-name="Caminho 28902" d="M48.58,85.355V50.9a2.233,2.233,0,0,1,2.538-1.319,6.907,6.907,0,0,0,.914.046c1.438,0,2.877,0,4.359,0,.006-.077.031-.235.032-.392,0-2.259-.008-4.518.006-6.777a1.831,1.831,0,0,1,2.151-1.972,35.338,35.338,0,0,1,7.7,1.521A31.3,31.3,0,0,1,79.73,49.731a.464.464,0,0,0,.157.068c.53-.492,1.03-1,1.575-1.455,5.637-4.7,12.238-7.029,19.444-7.83,1.639-.182,2.382.553,2.383,2.2V49.56c1.9,0,3.717.027,5.522-.01a2.137,2.137,0,0,1,2.323,1.472V85.355c-.437,1.147-1.353,1.4-2.476,1.469-4.547.292-9.1.55-13.633.995A49.224,49.224,0,0,0,80.718,91.2,2.133,2.133,0,0,1,79,91.2a51.856,51.856,0,0,0-15.279-3.5c-4.272-.4-8.562-.628-12.846-.89A2.3,2.3,0,0,1,48.58,85.355ZM78,84.973c.011-.241.019-.342.019-.443q0-15.363-.013-30.729a1.206,1.206,0,0,0-.314-.8,36.422,36.422,0,0,0-3.439-3.1,31.857,31.857,0,0,0-12.443-5.232c-.543-.115-1.095-.192-1.675-.291V75.9A39.161,39.161,0,0,1,78,84.973Zm3.693-.14c.081.016.107.03.118.023a2.644,2.644,0,0,0,.242-.18,38.364,38.364,0,0,1,16.953-8.613c.516-.121.61-.352.609-.829q-.019-15.058-.009-30.116V44.4c-.271.032-.471.046-.664.08a35.157,35.157,0,0,0-7.826,2.284,24.644,24.644,0,0,0-8.978,6.066,1.654,1.654,0,0,0-.453,1.2q.019,15.088.009,30.177Zm21.6-31.582V77a1.93,1.93,0,0,1-1.8,2.258,37.551,37.551,0,0,0-12.4,4.764c-.625.384-1.227.807-1.84,1.212,6.679-1.354,13.426-1.679,20.187-2.045V53.25Zm-30.8,32.1a.977.977,0,0,0-.141-.192q-.4-.282-.805-.552a36.961,36.961,0,0,0-13.15-5.31c-1.558-.314-1.965-.851-1.965-2.432V53.41H52.29V83.19C59.066,83.547,65.813,83.886,72.488,85.348Z" transform="translate(0 0)" fill="#fff"/>
    <path id="Caminho_28903" data-name="Caminho 28903" d="M363.99,320.58a1.932,1.932,0,0,1-2.843,1.7,16.781,16.781,0,0,0-5.377-2.19,1.818,1.818,0,0,1,.666-3.562,15.215,15.215,0,0,1,6.745,2.77C363.561,319.577,363.726,320.148,363.99,320.58Z" transform="translate(-289.835 -261.585)" fill="#fff"/>
    <path id="Caminho_28904" data-name="Caminho 28904" d="M356.575,515a12.493,12.493,0,0,1,1.932.531c1.45.624,2.883,1.3,4.278,2.042a1.808,1.808,0,0,1,.761,2.6,1.85,1.85,0,0,1-2.615.561,17.1,17.1,0,0,0-5.087-2.124,1.8,1.8,0,0,1-1.361-1.98A1.956,1.956,0,0,1,356.575,515Z" transform="translate(-289.877 -449.684)" fill="#fff"/>
    <path id="Caminho_28905" data-name="Caminho 28905" d="M764.813,316.55a1.841,1.841,0,0,1,.459,3.645,23.777,23.777,0,0,0-2.617.777,17.946,17.946,0,0,0-2.371,1.229,1.884,1.884,0,0,1-2.678-.486,1.851,1.851,0,0,1,.656-2.591,17.085,17.085,0,0,1,6.214-2.532C764.614,316.565,764.757,316.557,764.813,316.55Z" transform="translate(-671.636 -261.622)" fill="#fff"/>
    <path id="Caminho_28906" data-name="Caminho 28906" d="M761.2,521.044a1.945,1.945,0,0,1-1.939-1.245,1.789,1.789,0,0,1,.661-2.061,18.512,18.512,0,0,1,6.411-2.709,1.843,1.843,0,0,1,2.142,1.454,1.817,1.817,0,0,1-1.376,2.133,16.989,16.989,0,0,0-4.928,2.034A6.6,6.6,0,0,1,761.2,521.044Z" transform="translate(-673.385 -449.679)" fill="#fff"/>
  </g>
</svg>
