<svg id="Componente_1_2" data-name="Componente 1 – 2" xmlns="http://www.w3.org/2000/svg" width="27.805" height="27.821" viewBox="0 0 27.805 27.821">
  <path id="materias_svg-20" data-name="materias svg-20" d="M42.2,31.19H22.264a3.95,3.95,0,0,0-3.934,3.936V55.074a3.95,3.95,0,0,0,3.934,3.936H42.2a3.95,3.95,0,0,0,3.934-3.936V35.128A3.949,3.949,0,0,0,42.2,31.192m.02,7.1-9.247,9.472a.365.365,0,1,1-.522-.511L41.7,37.782a1.094,1.094,0,0,0,0-1.551l-.6-.6a1.122,1.122,0,0,0-1.548,0L29.086,45.849a.363.363,0,0,1-.4.076,5.11,5.11,0,0,0-7.1,4.707,5.016,5.016,0,0,0,.14,1.169l3.617-3.615a.366.366,0,0,1,.516,0l3.283,3.286a.364.364,0,0,1,0,.515L25.536,55.6a5.107,5.107,0,0,0,5.874-6.953,2.573,2.573,0,0,0-.888-.989.365.365,0,0,1,.388-.618,3.279,3.279,0,0,1,1.17,1.316,5.83,5.83,0,0,1-7.357,7.763.365.365,0,0,1-.134-.6l3.789-3.79L25.61,48.958,21.821,52.75a.367.367,0,0,1-.6-.134,5.836,5.836,0,0,1,7.53-7.453L39.039,35.1a1.823,1.823,0,0,1,2.577,0l.6.6a1.829,1.829,0,0,1,0,2.582m-9.988,7.322a.365.365,0,0,1-.516-.516l8.389-8.415a.368.368,0,1,1,.52.522Z" transform="translate(-18.33 -31.19)" fill="#008dcb"/>
</svg>
