<svg xmlns="http://www.w3.org/2000/svg" width="200" height="118.006" viewBox="0 0 200 118.006">
  <g id="materias_svg-14" data-name="materias svg-14" transform="translate(0 0)">
    <path id="Caminho_28771" data-name="Caminho 28771" d="M37.965,76.31v4.37H29.854v24.13H25.435V80.68H17.25V76.31Z" transform="translate(-17.25 -47.885)" fill="#008dcb"/>
    <path id="Caminho_28772" data-name="Caminho 28772" d="M95.62,76.31v28.5h-4.4V92.639H79.176v12.171H74.74V76.31h4.436V88.269H91.217V76.31Z" transform="translate(-51.106 -47.885)" fill="#008dcb"/>
    <path id="Caminho_28773" data-name="Caminho 28773" d="M142.213,80.65v7.619H153.14v4.295H142.213v7.917h13.233v4.328H137.81V76.31h17.636v4.34Z" transform="translate(-88.248 -47.885)" fill="#008dcb"/>
    <path id="Caminho_28774" data-name="Caminho 28774" d="M204.807,93.51c3.1-1.245,4.6-3.967,4.6-8.216,0-6.133-2.931-8.984-9.242-8.984H189.58v28.5h4.448V94.606h6.327l4.806,10.208h4.9ZM194.028,80.646h6.134c3.35,0,4.719,1.336,4.719,4.643,0,3.5-1.4,4.979-4.674,4.979H194.04Z" transform="translate(-118.735 -47.885)" fill="#008dcb"/>
    <path id="Caminho_28775" data-name="Caminho 28775" d="M274.235,76.31v28.5h-4.448V83.443l-7.026,20.4h-4.333L251.436,83.46v21.35H247V76.31h6.413l7.2,21.138,7.219-21.138Z" transform="translate(-152.55 -47.885)" fill="#008dcb"/>
    <path id="Caminho_28776" data-name="Caminho 28776" d="M424.725,57.049c-7.334-5.606-12.419-10.727-16.465-17.428,4.576-7.569,7.811-17.15,11.4-31.811,6.75,27.62,12.226,37.292,27.856,49.231C431.894,68.971,426.41,98.171,419.66,125.8c-3.589-14.66-6.824-29.74-11.4-42.475,4.045-11.262,9.131-20.69,16.465-26.283Z" transform="translate(-247.516 -7.81)" fill="#004e7a"/>
    <path id="Caminho_28777" data-name="Caminho 28777" d="M340.629,7.83c3.581,14.66,6.82,24.242,11.392,31.811-4.041,6.693-9.135,11.814-16.477,17.428,7.342,5.594,12.436,15.021,16.477,26.283-4.571,12.735-7.811,27.8-11.392,42.475C333.87,98.2,328.394,68.978,312.76,57.069c15.622-11.938,21.11-21.611,27.868-49.231Z" transform="translate(-191.276 -7.822)" fill="#008dcb"/>
    <path id="Caminho_28778" data-name="Caminho 28778" d="M120.583,160.17v5.108H112.9v23.3H107.65v-23.3H99.88V160.17Z" transform="translate(-65.911 -96.947)" fill="#004e7a"/>
    <path id="Caminho_28779" data-name="Caminho 28779" d="M163.566,165.278v6.569h10.421v5.033H163.566v6.594h12.728v5.1h-17.9V160.17h17.9v5.108Z" transform="translate(-100.367 -96.947)" fill="#004e7a"/>
    <path id="Caminho_28780" data-name="Caminho 28780" d="M226.986,182.442l.164,4.884-.613.137a46.037,46.037,0,0,1-7.572.946c-8.814,0-10.586-5.589-10.586-14.6,0-8.805,1.8-14.677,10.586-14.677a36.832,36.832,0,0,1,7.589.992l.6.149-.164,4.822-.822-.12a57.1,57.1,0,0,0-6.726-.664c-4.452,0-5.673,2.046-5.673,9.5s1.176,9.415,5.755,9.415a62.1,62.1,0,0,0,6.668-.66Z" transform="translate(-129.807 -96.339)" fill="#004e7a"/>
    <path id="Caminho_28781" data-name="Caminho 28781" d="M283.927,160.17v28.408h-5.254V176.76H267.9v11.818H262.69V160.17H267.9v11.482h10.775V160.17Z" transform="translate(-161.79 -96.947)" fill="#004e7a"/>
    <path id="Caminho_28782" data-name="Caminho 28782" d="M327.725,167.455h-.67v1.125H326.5v-3.32h1.233c.748,0,1.11.307,1.11,1.066a.944.944,0,0,1-.518.95l.518,1.286h-.613l-.448-1.125Zm0-1.66h-.682V166.9h.691c.382,0,.526-.232.526-.568a.475.475,0,0,0-.132-.406A.466.466,0,0,0,327.725,165.8Z" transform="translate(-199.367 -99.925)" fill="#004e7a"/>
    <path id="Caminho_28783" data-name="Caminho 28783" d="M322.18,165.138a2.911,2.911,0,1,1,2.911,2.938,2.893,2.893,0,0,1-2.059-.859A2.947,2.947,0,0,1,322.18,165.138Zm.465,0h0a2.446,2.446,0,1,0,2.446-2.469A2.458,2.458,0,0,0,322.645,165.138Z" transform="translate(-196.823 -98.135)" fill="#004e7a"/>
    <path id="Caminho_28784" data-name="Caminho 28784" d="M171.557,250.552a6.9,6.9,0,0,0,.715.22,3.667,3.667,0,0,0,.917.1,1.948,1.948,0,0,0,1.279-.353,1.179,1.179,0,0,0,.411-.95,1.34,1.34,0,0,0-.09-.506.921.921,0,0,0-.267-.361,1.873,1.873,0,0,0-.44-.278c-.181-.087-.386-.178-.621-.274l-.6-.245a3.807,3.807,0,0,1-.551-.278,1.649,1.649,0,0,1-.432-.373,1.623,1.623,0,0,1-.288-.51,2,2,0,0,1-.1-.685,1.859,1.859,0,0,1,.645-1.5,2.744,2.744,0,0,1,1.813-.539,5.072,5.072,0,0,1,1.739.295,3.182,3.182,0,0,1-.23.871,4.6,4.6,0,0,0-.65-.187,3.67,3.67,0,0,0-.822-.087,1.662,1.662,0,0,0-1.011.27.95.95,0,0,0-.354.805.836.836,0,0,0,.09.415.983.983,0,0,0,.234.3,1.512,1.512,0,0,0,.341.236,4.239,4.239,0,0,0,.411.191l.588.232a6.985,6.985,0,0,1,.74.349,2.523,2.523,0,0,1,.551.415,1.742,1.742,0,0,1,.349.585,2.39,2.39,0,0,1,.119.788,2.125,2.125,0,0,1-.74,1.71,3.1,3.1,0,0,1-2.055.627,5.189,5.189,0,0,1-.588-.021c-.177-.021-.333-.037-.481-.062a4.105,4.105,0,0,1-.411-.108l-.411-.137a2.506,2.506,0,0,1,.09-.473A1.748,1.748,0,0,1,171.557,250.552Z" transform="translate(-108.006 -145.995)" fill="#004e7a"/>
    <path id="Caminho_28785" data-name="Caminho 28785" d="M187.807,254.889a2.637,2.637,0,0,1-1.094-.216,2.242,2.242,0,0,1-.781-.593,2.573,2.573,0,0,1-.465-.9,4.266,4.266,0,0,1,0-2.228,2.5,2.5,0,0,1,.465-.892,2.264,2.264,0,0,1,.781-.6,2.853,2.853,0,0,1,2.191,0,2.265,2.265,0,0,1,.781.6,2.5,2.5,0,0,1,.465.892,4.267,4.267,0,0,1,0,2.228,2.573,2.573,0,0,1-.465.9,2.242,2.242,0,0,1-.781.593A2.646,2.646,0,0,1,187.807,254.889Zm0-.83a1.188,1.188,0,0,0,1.065-.527,2.65,2.65,0,0,0,.345-1.461,2.609,2.609,0,0,0-.345-1.457,1.184,1.184,0,0,0-1.065-.523,1.172,1.172,0,0,0-1.057.523,2.647,2.647,0,0,0-.337,1.457,2.689,2.689,0,0,0,.337,1.461A1.172,1.172,0,0,0,187.807,254.059Z" transform="translate(-116.226 -149.058)" fill="#004e7a"/>
    <path id="Caminho_28786" data-name="Caminho 28786" d="M200.879,243.953a2.139,2.139,0,0,1,.255-.033h.51a2.208,2.208,0,0,1,.259.033v6.079a1.552,1.552,0,0,0,.049.461.607.607,0,0,0,.14.257.409.409,0,0,0,.21.116,1.219,1.219,0,0,0,.255.029h.214a1.131,1.131,0,0,0,.2-.033,3.1,3.1,0,0,1,.095.8,1.347,1.347,0,0,1-.354.066h-.386a2.039,2.039,0,0,1-.563-.075,1.153,1.153,0,0,1-.456-.241,1.109,1.109,0,0,1-.312-.452,1.845,1.845,0,0,1-.115-.705Z" transform="translate(-125.388 -145.944)" fill="#004e7a"/>
    <path id="Caminho_28787" data-name="Caminho 28787" d="M208.527,249.5a2.2,2.2,0,0,1,.263-.029h.51a2.13,2.13,0,0,1,.259.029v2.955a3.179,3.179,0,0,0,.095.83,1.177,1.177,0,0,0,.28.519,1.009,1.009,0,0,0,.46.266,2.545,2.545,0,0,0,.625.071,3.172,3.172,0,0,0,.9-.112V249.5a2.232,2.232,0,0,1,.259-.029h.51a2.152,2.152,0,0,1,.255.029v5.228c-.243.071-.534.137-.871.2a5.749,5.749,0,0,1-1.044.1,4.81,4.81,0,0,1-.966-.091,1.718,1.718,0,0,1-1.336-1.129,3.487,3.487,0,0,1-.2-1.3Z" transform="translate(-129.892 -149.191)" fill="#004e7a"/>
    <path id="Caminho_28788" data-name="Caminho 28788" d="M226.607,253.862a2.045,2.045,0,0,1,.218.83,4.207,4.207,0,0,1-.691.174,5.212,5.212,0,0,1-.8.058l-.189.473a.941.941,0,0,1,.189,0,1.189,1.189,0,0,1,.822.253.833.833,0,0,1,.275.643.873.873,0,0,1-.411.788,2.039,2.039,0,0,1-1.1.261,3.137,3.137,0,0,1-.362,0,1.5,1.5,0,0,1-.411-.1,2.131,2.131,0,0,1,.037-.311.835.835,0,0,1,.107-.3,2.1,2.1,0,0,0,.645.116,1.053,1.053,0,0,0,.522-.112.34.34,0,0,0,.2-.311.3.3,0,0,0-.189-.295,1.255,1.255,0,0,0-.5-.083,2.239,2.239,0,0,0-.292,0l-.28.054a.285.285,0,0,1-.066-.054c.136-.369.263-.73.411-1.071a2.2,2.2,0,0,1-1.48-.913,3.189,3.189,0,0,1-.489-1.842,3.734,3.734,0,0,1,.16-1.116,2.434,2.434,0,0,1,.489-.892,2.349,2.349,0,0,1,.822-.6,2.725,2.725,0,0,1,1.131-.22,4.807,4.807,0,0,1,.769.058,3.14,3.14,0,0,1,.645.174,2.36,2.36,0,0,1-.045.415,1.748,1.748,0,0,1-.132.415,3.771,3.771,0,0,0-.539-.129,3.562,3.562,0,0,0-.617-.05,1.445,1.445,0,0,0-1.233.531,2.319,2.319,0,0,0-.411,1.427,2.034,2.034,0,0,0,.465,1.481,1.636,1.636,0,0,0,1.233.473,3.483,3.483,0,0,0,.571-.042A2.969,2.969,0,0,0,226.607,253.862Z" transform="translate(-138.282 -149.085)" fill="#004e7a"/>
    <path id="Caminho_28789" data-name="Caminho 28789" d="M237.071,252.044a2.639,2.639,0,0,1-1.094-.216,2.242,2.242,0,0,1-.781-.593,2.442,2.442,0,0,1-.464-.9,4.157,4.157,0,0,1,0-2.228,2.393,2.393,0,0,1,.464-.892,2.262,2.262,0,0,1,.781-.6,2.828,2.828,0,0,1,2.187,0,2.263,2.263,0,0,1,.781.6,2.452,2.452,0,0,1,.465.892,4.157,4.157,0,0,1,0,2.228,2.5,2.5,0,0,1-.465.9,2.243,2.243,0,0,1-.781.593A2.639,2.639,0,0,1,237.071,252.044Zm-1.8-7.15a1.515,1.515,0,0,1,.411-.365,1.146,1.146,0,0,1,.6-.149,1.166,1.166,0,0,1,.411.07c.132.05.259.1.382.158s.243.108.366.158a1.081,1.081,0,0,0,.411.075.862.862,0,0,0,.329-.062,1.5,1.5,0,0,0,.37-.266,1.878,1.878,0,0,1,.333.643,1.627,1.627,0,0,1-.411.349,1.175,1.175,0,0,1-.588.145,1.22,1.22,0,0,1-.411-.075c-.132-.05-.259-.1-.382-.158l-.37-.158a.994.994,0,0,0-.382-.075.765.765,0,0,0-.354.075,1.858,1.858,0,0,0-.354.253,2.5,2.5,0,0,1-.2-.3A1.4,1.4,0,0,1,235.267,244.894Zm1.8,6.32a1.192,1.192,0,0,0,1.065-.527,2.688,2.688,0,0,0,.341-1.461,2.643,2.643,0,0,0-.341-1.456,1.188,1.188,0,0,0-1.065-.523,1.16,1.16,0,0,0-1.057.523,2.642,2.642,0,0,0-.341,1.456,2.688,2.688,0,0,0,.341,1.461A1.164,1.164,0,0,0,237.071,251.214Z" transform="translate(-145.236 -146.213)" fill="#004e7a"/>
    <path id="Caminho_28790" data-name="Caminho 28790" d="M250.509,252.341a1.527,1.527,0,0,0,1.727,1.71,3.8,3.8,0,0,0,1.406-.261,1.576,1.576,0,0,1,.14.382,2.8,2.8,0,0,1,.062.448,3.667,3.667,0,0,1-.756.22,5.142,5.142,0,0,1-.913.075,3.4,3.4,0,0,1-1.233-.207,2.125,2.125,0,0,1-1.365-1.448,3.726,3.726,0,0,1-.156-1.12,4.094,4.094,0,0,1,.148-1.12,2.593,2.593,0,0,1,.465-.9,2.308,2.308,0,0,1,.785-.614,2.6,2.6,0,0,1,1.122-.224,2.3,2.3,0,0,1,.97.191,1.942,1.942,0,0,1,.695.519,2.171,2.171,0,0,1,.411.788,3.22,3.22,0,0,1,.148,1v.585Zm2.647-.776a1.97,1.97,0,0,0-.082-.564,1.393,1.393,0,0,0-.226-.465,1.132,1.132,0,0,0-.386-.324,1.392,1.392,0,0,0-1.533.27,1.907,1.907,0,0,0-.411,1.083Z" transform="translate(-153.974 -149.079)" fill="#004e7a"/>
    <path id="Caminho_28791" data-name="Caminho 28791" d="M263.908,253.811a3.641,3.641,0,0,0,.621.183,3.409,3.409,0,0,0,.674.066,1.812,1.812,0,0,0,.456-.05,1.139,1.139,0,0,0,.382-.158.9.9,0,0,0,.259-.257.622.622,0,0,0,.1-.344.677.677,0,0,0-.078-.344.7.7,0,0,0-.21-.232,1.368,1.368,0,0,0-.3-.162c-.115-.046-.238-.091-.37-.133l-.366-.137a2.572,2.572,0,0,1-.966-.568,1.159,1.159,0,0,1-.3-.83,1.4,1.4,0,0,1,.506-1.137,2.283,2.283,0,0,1,1.484-.415,3.945,3.945,0,0,1,.8.079,4.5,4.5,0,0,1,.682.183,2.547,2.547,0,0,1-.078.415,2.517,2.517,0,0,1-.14.386c-.156-.054-.337-.108-.547-.162a2.773,2.773,0,0,0-.682-.079,1.6,1.6,0,0,0-.682.137.494.494,0,0,0-.3.485.589.589,0,0,0,.074.3.7.7,0,0,0,.2.216,1.462,1.462,0,0,0,.288.154l.349.125.456.158a4.116,4.116,0,0,1,.477.2,1.416,1.416,0,0,1,.382.291,1.317,1.317,0,0,1,.263.415,1.762,1.762,0,0,1-.058,1.307,1.57,1.57,0,0,1-.444.548,2.084,2.084,0,0,1-.691.349,2.926,2.926,0,0,1-.9.129,4.925,4.925,0,0,1-.876-.071,4.189,4.189,0,0,1-.7-.183,2.346,2.346,0,0,1,.09-.415Q263.83,254.022,263.908,253.811Z" transform="translate(-162.367 -149.084)" fill="#004e7a"/>
    <path id="Caminho_28792" data-name="Caminho 28792" d="M282.757,252.324a1.77,1.77,0,0,0,.452,1.295,1.79,1.79,0,0,0,1.279.415,3.812,3.812,0,0,0,1.406-.262,1.776,1.776,0,0,1,.136.382,2.806,2.806,0,0,1,.062.448,3.673,3.673,0,0,1-.756.22,5.1,5.1,0,0,1-.909.075,3.384,3.384,0,0,1-1.233-.207,2.191,2.191,0,0,1-1.357-1.461,3.856,3.856,0,0,1-.156-1.12,3.94,3.94,0,0,1,.152-1.12,2.5,2.5,0,0,1,.46-.9,2.288,2.288,0,0,1,.789-.614,2.6,2.6,0,0,1,1.118-.224,2.291,2.291,0,0,1,.97.191,1.958,1.958,0,0,1,.7.519,2.308,2.308,0,0,1,.411.788,3.348,3.348,0,0,1,.144,1v.307a1.125,1.125,0,0,1-.021.278Zm2.648-.776a1.972,1.972,0,0,0-.078-.564,1.486,1.486,0,0,0-.23-.465,1.1,1.1,0,0,0-.387-.324,1.388,1.388,0,0,0-1.529.27,1.878,1.878,0,0,0-.411,1.083Z" transform="translate(-172.973 -149.062)" fill="#004e7a"/>
    <path id="Caminho_28793" data-name="Caminho 28793" d="M296.7,249.355a2.267,2.267,0,0,1,.226-.029,2.047,2.047,0,0,1,.226,0,1.831,1.831,0,0,1,.214,0,.574.574,0,0,1,.214.029c0,.108.041.245.062.415a3.749,3.749,0,0,1,.029.436,2.162,2.162,0,0,1,.234-.361,1.577,1.577,0,0,1,.333-.307,1.864,1.864,0,0,1,.444-.224,1.8,1.8,0,0,1,.551-.083,1.393,1.393,0,0,1,1.48.975,2.716,2.716,0,0,1,.255-.353,1.757,1.757,0,0,1,.341-.315,1.564,1.564,0,0,1,.966-.307,1.637,1.637,0,0,1,1.353.527,2.45,2.45,0,0,1,.411,1.556v3.436a2,2,0,0,1-.259.033h-.518a2.123,2.123,0,0,1-.255-.033v-3.129a2.125,2.125,0,0,0-.218-1.087.775.775,0,0,0-.719-.361,1.073,1.073,0,0,0-.859.386,1.751,1.751,0,0,0-.329,1.145v3.05a2.046,2.046,0,0,1-.255.033h-.51a2.116,2.116,0,0,1-.255-.033v-3.2a2.09,2.09,0,0,0-.21-1.058.705.705,0,0,0-.666-.353,1.074,1.074,0,0,0-.888.465,1.809,1.809,0,0,0-.275.581,3.214,3.214,0,0,0-.1.83v2.755a2.026,2.026,0,0,1-.255.033h-.514a2.146,2.146,0,0,1-.263-.033Z" transform="translate(-181.812 -149.048)" fill="#004e7a"/>
    <path id="Caminho_28794" data-name="Caminho 28794" d="M103.016,282.735a3.183,3.183,0,0,0,.617.183,3.414,3.414,0,0,0,.674.07,1.806,1.806,0,0,0,.456-.054,1.143,1.143,0,0,0,.382-.158.855.855,0,0,0,.259-.257.61.61,0,0,0,.1-.34.682.682,0,0,0-.078-.349.739.739,0,0,0-.206-.232,1.513,1.513,0,0,0-.288-.17,3.887,3.887,0,0,0-.37-.129l-.366-.141a2.571,2.571,0,0,1-.966-.569,1.16,1.16,0,0,1-.3-.851,1.4,1.4,0,0,1,.506-1.133,2.258,2.258,0,0,1,1.484-.415,4.231,4.231,0,0,1,.8.079,4.99,4.99,0,0,1,.682.187,2.509,2.509,0,0,1-.078.415,2.541,2.541,0,0,1-.14.39,4.7,4.7,0,0,0-.547-.162,2.771,2.771,0,0,0-.682-.083,1.6,1.6,0,0,0-.682.137.49.49,0,0,0-.3.485.652.652,0,0,0,.07.307.686.686,0,0,0,.2.212,1.269,1.269,0,0,0,.288.154l.349.129.46.154a3.668,3.668,0,0,1,.473.2,1.339,1.339,0,0,1,.382.29,1.246,1.246,0,0,1,.263.415,1.6,1.6,0,0,1,.1.593,1.631,1.631,0,0,1-.156.71,1.566,1.566,0,0,1-.44.548,2.157,2.157,0,0,1-.695.353,3.065,3.065,0,0,1-.9.125,5.376,5.376,0,0,1-.876-.067,4.3,4.3,0,0,1-.7-.187,2.223,2.223,0,0,1,.09-.415A2.339,2.339,0,0,1,103.016,282.735Z" transform="translate(-67.625 -165.99)" fill="#004e7a"/>
    <path id="Caminho_28795" data-name="Caminho 28795" d="M115.033,276.11h-.674a1.126,1.126,0,0,1-.033-.2,1.889,1.889,0,0,1,0-.216,1.96,1.96,0,0,1,0-.216,1.142,1.142,0,0,1,.033-.191h1.686v5.394a2.078,2.078,0,0,1-.255.029h-.5a2.3,2.3,0,0,1-.255-.029Zm-.226-2.008a1.809,1.809,0,0,1-.029-.274V273.3a1.642,1.642,0,0,1,.029-.266c.09,0,.185-.025.288-.029h.543a2.6,2.6,0,0,1,.284.029,2.343,2.343,0,0,1,.025.266v.523a2.592,2.592,0,0,1-.025.274,2.644,2.644,0,0,1-.275.033h-.551C115.012,274.126,114.9,274.118,114.807,274.1Z" transform="translate(-74.416 -162.963)" fill="#004e7a"/>
    <path id="Caminho_28796" data-name="Caminho 28796" d="M122.228,282.747a3.274,3.274,0,0,0,.617.183,3.445,3.445,0,0,0,.674.07,1.86,1.86,0,0,0,.46-.054,1.155,1.155,0,0,0,.378-.158.826.826,0,0,0,.259-.257.61.61,0,0,0,.1-.34.682.682,0,0,0-.078-.349.69.69,0,0,0-.206-.232,1.412,1.412,0,0,0-.3-.162,3.859,3.859,0,0,0-.37-.129l-.362-.141a2.592,2.592,0,0,1-.97-.569,1.176,1.176,0,0,1-.3-.851,1.4,1.4,0,0,1,.506-1.133,2.266,2.266,0,0,1,1.484-.415,4.285,4.285,0,0,1,.8.079,4.938,4.938,0,0,1,.678.187,2.142,2.142,0,0,1-.078.415,2.167,2.167,0,0,1-.14.39,4.251,4.251,0,0,0-.547-.162,2.746,2.746,0,0,0-.682-.083,1.632,1.632,0,0,0-.682.137.49.49,0,0,0-.3.485.606.606,0,0,0,.074.307.641.641,0,0,0,.2.212,1.12,1.12,0,0,0,.288.154l.349.129.456.154a3.279,3.279,0,0,1,.473.2,1.328,1.328,0,0,1,.645.705,1.637,1.637,0,0,1-.5,1.838,2.151,2.151,0,0,1-.695.353,3.034,3.034,0,0,1-.9.125,5.386,5.386,0,0,1-.876-.066,4.152,4.152,0,0,1-.695-.187,1.934,1.934,0,0,1,.086-.415C122.122,283.029,122.171,282.888,122.228,282.747Z" transform="translate(-78.931 -166.002)" fill="#004e7a"/>
    <path id="Caminho_28797" data-name="Caminho 28797" d="M133.763,277.456h-.822l-.041-.149,1.792-2.017h.082v1.336h1.357a1.941,1.941,0,0,1,.041.415,2.733,2.733,0,0,1-.041.415h-1.357v2.461a5.345,5.345,0,0,0,.037.705,1.078,1.078,0,0,0,.123.415.44.44,0,0,0,.243.191,1.361,1.361,0,0,0,.378.046,2.09,2.09,0,0,0,.333-.025,1.147,1.147,0,0,0,.284-.058,1.712,1.712,0,0,1,.09.415c0,.145,0,.278,0,.39-.14.033-.284.058-.436.079a4.545,4.545,0,0,1-.493.025,1.7,1.7,0,0,1-1.168-.369,1.536,1.536,0,0,1-.411-1.22Z" transform="translate(-85.356 -164.297)" fill="#004e7a"/>
    <path id="Caminho_28798" data-name="Caminho 28798" d="M144.131,281.294a1.778,1.778,0,0,0,.452,1.295,1.805,1.805,0,0,0,1.274.415,3.811,3.811,0,0,0,1.406-.261,1.539,1.539,0,0,1,.14.386,2.806,2.806,0,0,1,.062.444,3.431,3.431,0,0,1-.756.22,5.145,5.145,0,0,1-.913.075,3.4,3.4,0,0,1-1.233-.2,2.274,2.274,0,0,1-.859-.581,2.241,2.241,0,0,1-.493-.884,3.705,3.705,0,0,1-.16-1.12,4.044,4.044,0,0,1,.152-1.116,2.5,2.5,0,0,1,.464-.9,2.252,2.252,0,0,1,.785-.61,2.544,2.544,0,0,1,1.122-.228,2.369,2.369,0,0,1,.97.191,1.94,1.94,0,0,1,.695.519,2.207,2.207,0,0,1,.411.788,3.24,3.24,0,0,1,.148,1v.589Zm2.643-.78a1.944,1.944,0,0,0-.078-.56,1.379,1.379,0,0,0-.226-.469,1.119,1.119,0,0,0-.386-.319,1.183,1.183,0,0,0-.559-.125,1.228,1.228,0,0,0-.974.39,1.927,1.927,0,0,0-.411,1.083Z" transform="translate(-91.333 -166.01)" fill="#004e7a"/>
    <path id="Caminho_28799" data-name="Caminho 28799" d="M158.061,278.317a1.986,1.986,0,0,0,.226-.033,2.062,2.062,0,0,1,.226,0h.214a.5.5,0,0,1,.214.033,4.132,4.132,0,0,0,.062.415,3.664,3.664,0,0,1,.029.436,1.743,1.743,0,0,1,.567-.672,1.865,1.865,0,0,1,.444-.224,1.786,1.786,0,0,1,.551-.083,1.39,1.39,0,0,1,1.48.979,2.484,2.484,0,0,1,.255-.357,1.9,1.9,0,0,1,.341-.315,1.564,1.564,0,0,1,.966-.307,1.636,1.636,0,0,1,1.352.527,2.457,2.457,0,0,1,.411,1.556v3.44a2.134,2.134,0,0,1-.259.029h-.518a2.159,2.159,0,0,1-.255-.029v-3.116a2.187,2.187,0,0,0-.218-1.091.779.779,0,0,0-.719-.361,1.065,1.065,0,0,0-.859.39,1.733,1.733,0,0,0-.329,1.145v3.05a2.068,2.068,0,0,1-.255.029h-.51a2.067,2.067,0,0,1-.255-.029V280.52a2.121,2.121,0,0,0-.21-1.058.71.71,0,0,0-.666-.353,1.1,1.1,0,0,0-.489.116,1.137,1.137,0,0,0-.411.349,1.855,1.855,0,0,0-.275.581,3.048,3.048,0,0,0-.1.83v2.755a2.073,2.073,0,0,1-.255.029H158.3a2.221,2.221,0,0,1-.263-.029Z" transform="translate(-100.161 -165.988)" fill="#004e7a"/>
    <path id="Caminho_28800" data-name="Caminho 28800" d="M182.286,280.159a1.039,1.039,0,0,0-.312-.863,1.494,1.494,0,0,0-.909-.241,3.944,3.944,0,0,0-.682.058,5.026,5.026,0,0,0-.621.154,1.673,1.673,0,0,1-.2-.83,4.245,4.245,0,0,1,.781-.178,5.222,5.222,0,0,1,.822-.066,2.333,2.333,0,0,1,1.587.481,1.945,1.945,0,0,1,.538,1.527v3.378c-.243.054-.538.112-.884.174a6.476,6.476,0,0,1-1.065.087,3.953,3.953,0,0,1-.921-.1,1.886,1.886,0,0,1-.7-.3,1.423,1.423,0,0,1-.44-.535,1.79,1.79,0,0,1-.156-.793,1.644,1.644,0,0,1,.181-.793,1.723,1.723,0,0,1,.493-.568,2.257,2.257,0,0,1,.719-.336,3.378,3.378,0,0,1,.855-.108h.547l.362.037Zm0,1.021c-.107,0-.238-.029-.411-.042a3.936,3.936,0,0,0-.411-.021,1.681,1.681,0,0,0-.983.241.833.833,0,0,0-.337.734.913.913,0,0,0,.115.5.772.772,0,0,0,.284.27.914.914,0,0,0,.378.116,3.415,3.415,0,0,0,.411.025,2.856,2.856,0,0,0,.493-.029,2.675,2.675,0,0,0,.456-.079Z" transform="translate(-112.58 -165.992)" fill="#004e7a"/>
    <path id="Caminho_28801" data-name="Caminho 28801" d="M192.659,282.746a3.32,3.32,0,0,0,.621.183,3.416,3.416,0,0,0,.674.071,1.812,1.812,0,0,0,.456-.054,1.142,1.142,0,0,0,.382-.158.855.855,0,0,0,.259-.257.61.61,0,0,0,.1-.34.682.682,0,0,0-.078-.349.7.7,0,0,0-.21-.232,1.374,1.374,0,0,0-.3-.162,3.869,3.869,0,0,0-.37-.129l-.366-.141a2.626,2.626,0,0,1-.97-.569,1.173,1.173,0,0,1-.3-.851,1.4,1.4,0,0,1,.506-1.133,2.258,2.258,0,0,1,1.484-.415,4.263,4.263,0,0,1,.8.079,5.166,5.166,0,0,1,.682.187,2.511,2.511,0,0,1-.078.415,2.544,2.544,0,0,1-.14.39,4.658,4.658,0,0,0-.547-.162,2.762,2.762,0,0,0-.682-.083,1.6,1.6,0,0,0-.682.137.49.49,0,0,0-.3.486.606.606,0,0,0,.074.307.687.687,0,0,0,.2.212,1.275,1.275,0,0,0,.288.153l.349.129.456.153a3.521,3.521,0,0,1,.477.2,1.337,1.337,0,0,1,.382.29,1.247,1.247,0,0,1,.263.415,1.6,1.6,0,0,1,.1.593,1.632,1.632,0,0,1-.156.71,1.533,1.533,0,0,1-.444.548,2.132,2.132,0,0,1-.691.353,3.06,3.06,0,0,1-.9.124,5.383,5.383,0,0,1-.876-.066,4.206,4.206,0,0,1-.7-.187,2.223,2.223,0,0,1,.09-.415C192.56,283.029,192.609,282.887,192.659,282.746Z" transform="translate(-120.408 -166.002)" fill="#004e7a"/>
    <path id="Caminho_28802" data-name="Caminho 28802" d="M210.433,277.456h-.822l-.041-.149,1.792-2.017h.082v1.336H212.8a1.675,1.675,0,0,1,.045.415,1.863,1.863,0,0,1,0,.22,1.885,1.885,0,0,1-.033.212h-1.352v2.461a5.337,5.337,0,0,0,.037.705,1.078,1.078,0,0,0,.123.415.449.449,0,0,0,.238.191,1.414,1.414,0,0,0,.382.046,2.1,2.1,0,0,0,.333-.025,1.145,1.145,0,0,0,.284-.058,1.913,1.913,0,0,1,.086.415v.39c-.14.033-.288.058-.44.079a4.493,4.493,0,0,1-.489.025,1.707,1.707,0,0,1-1.172-.369,1.548,1.548,0,0,1-.411-1.22Z" transform="translate(-130.507 -164.297)" fill="#004e7a"/>
    <path id="Caminho_28803" data-name="Caminho 28803" d="M220.817,278.329a1.778,1.778,0,0,0,.452,1.295,1.81,1.81,0,0,0,1.279.415,3.83,3.83,0,0,0,1.406-.261,1.737,1.737,0,0,1,.136.386,2.813,2.813,0,0,1,.062.444,3.434,3.434,0,0,1-.756.22,5.148,5.148,0,0,1-.913.075,3.421,3.421,0,0,1-1.233-.2,2.275,2.275,0,0,1-.859-.581,2.241,2.241,0,0,1-.493-.884,3.709,3.709,0,0,1-.156-1.12,4.045,4.045,0,0,1,.148-1.116,2.579,2.579,0,0,1,.465-.9,2.251,2.251,0,0,1,.785-.61,2.563,2.563,0,0,1,1.122-.228,2.369,2.369,0,0,1,.97.191,2,2,0,0,1,.7.519,2.344,2.344,0,0,1,.411.788,3.349,3.349,0,0,1,.144,1v.311a1.122,1.122,0,0,1-.021.278Zm2.647-.78a2.091,2.091,0,0,0-.078-.56,1.467,1.467,0,0,0-.23-.469,1.12,1.12,0,0,0-.386-.32,1.165,1.165,0,0,0-.555-.124,1.227,1.227,0,0,0-.978.39,1.96,1.96,0,0,0-.411,1.083Zm-1.126-3.029a2.166,2.166,0,0,1-.251.033h-.539a.624.624,0,0,1-.243-.033l1.2-1.332c.107,0,.214-.025.325-.033s.226,0,.345,0h.341a.94.94,0,0,1,.3.033Z" transform="translate(-136.496 -163.046)" fill="#004e7a"/>
    <path id="Caminho_28804" data-name="Caminho 28804" d="M234.78,278.458a1.731,1.731,0,0,0,.218-.033,1.9,1.9,0,0,1,.218,0h.23a1.392,1.392,0,0,1,.21.033c.021.1.041.241.062.415a3.763,3.763,0,0,1,.033.436,2.1,2.1,0,0,1,.576-.618,1.51,1.51,0,0,1,.925-.266h.321a1.442,1.442,0,0,1,.033.2,1.945,1.945,0,0,1,0,.22,1.957,1.957,0,0,1,0,.266.692.692,0,0,1-.033.261.81.81,0,0,0-.173-.021h-.14a1.758,1.758,0,0,0-.538.079,1.141,1.141,0,0,0-.456.278,1.36,1.36,0,0,0-.325.548,2.851,2.851,0,0,0-.119.892v2.685a2.168,2.168,0,0,1-.255.029h-.51a2.525,2.525,0,0,1-.267-.029Z" transform="translate(-145.354 -166.129)" fill="#004e7a"/>
    <path id="Caminho_28805" data-name="Caminho 28805" d="M244.381,278.317a2.031,2.031,0,0,1,.222-.033h.44a.508.508,0,0,1,.214.033c.021.1.041.241.062.415a3.671,3.671,0,0,1,.029.436,2.287,2.287,0,0,1,.234-.365,1.733,1.733,0,0,1,.337-.307,1.758,1.758,0,0,1,.44-.224,1.8,1.8,0,0,1,.551-.083,1.39,1.39,0,0,1,1.48.979,2.235,2.235,0,0,1,.259-.357,1.875,1.875,0,0,1,.337-.315,1.565,1.565,0,0,1,.966-.307,1.636,1.636,0,0,1,1.353.527,2.457,2.457,0,0,1,.411,1.556v3.44a2.022,2.022,0,0,1-.259.029h-.514a2.252,2.252,0,0,1-.259-.029v-3.116a2.141,2.141,0,0,0-.218-1.091.771.771,0,0,0-.719-.361,1.065,1.065,0,0,0-.859.39,1.733,1.733,0,0,0-.325,1.145v3.05a2.263,2.263,0,0,1-.259.029h-.51a2.269,2.269,0,0,1-.255-.029V280.52a2.12,2.12,0,0,0-.21-1.058.705.705,0,0,0-.666-.353,1.1,1.1,0,0,0-.489.116,1.137,1.137,0,0,0-.411.349,1.763,1.763,0,0,0-.271.581,3.049,3.049,0,0,0-.1.83v2.755a2.249,2.249,0,0,1-.259.029h-.514a2.14,2.14,0,0,1-.259-.029Z" transform="translate(-150.995 -165.988)" fill="#004e7a"/>
    <path id="Caminho_28806" data-name="Caminho 28806" d="M265.983,276.11H265.3a1.153,1.153,0,0,1-.029-.2,1.9,1.9,0,0,1,0-.216,2.035,2.035,0,0,1,0-.216,1.176,1.176,0,0,1,.029-.191h1.689v5.394a2.169,2.169,0,0,1-.255.029h-.5a2.174,2.174,0,0,1-.255-.029Zm-.23-2.008a2.572,2.572,0,0,1-.025-.274V273.3a2.325,2.325,0,0,1,.025-.266c.09,0,.189-.025.292-.029h.543a2.746,2.746,0,0,1,.284.029,2.325,2.325,0,0,1,.025.266v.523a.221.221,0,0,1-.3.307h-.547c-.1-.008-.2-.017-.288-.033Z" transform="translate(-163.311 -162.963)" fill="#004e7a"/>
    <path id="Caminho_28807" data-name="Caminho 28807" d="M276.859,282.755a1.865,1.865,0,0,1,.144.369,1.676,1.676,0,0,1,.074.452,3.816,3.816,0,0,1-1.406.241,2.544,2.544,0,0,1-2.01-.764,2.972,2.972,0,0,1-.678-2.075,3.627,3.627,0,0,1,.169-1.116,2.581,2.581,0,0,1,.493-.892,2.365,2.365,0,0,1,.822-.6,2.771,2.771,0,0,1,1.135-.22,5.261,5.261,0,0,1,.773.054,3.374,3.374,0,0,1,.633.166,2.313,2.313,0,0,1-.045.415,1.789,1.789,0,0,1-.132.415,3.479,3.479,0,0,0-1.163-.178,1.4,1.4,0,0,0-1.2.535,2.335,2.335,0,0,0-.411,1.419,2.088,2.088,0,0,0,.448,1.477,1.636,1.636,0,0,0,1.233.469,3.656,3.656,0,0,0,.58-.041A2.641,2.641,0,0,0,276.859,282.755Z" transform="translate(-167.848 -165.97)" fill="#004e7a"/>
    <path id="Caminho_28808" data-name="Caminho 28808" d="M287.438,283.848a2.557,2.557,0,0,1-1.089-.216,2.159,2.159,0,0,1-.785-.593,2.5,2.5,0,0,1-.46-.892,4.187,4.187,0,0,1,0-2.232,2.5,2.5,0,0,1,.46-.892,2.28,2.28,0,0,1,.785-.6,2.829,2.829,0,0,1,2.187,0,2.264,2.264,0,0,1,.781.6,2.588,2.588,0,0,1,.465.892,4.283,4.283,0,0,1,0,2.232,2.588,2.588,0,0,1-.465.892,2.147,2.147,0,0,1-.781.593A2.582,2.582,0,0,1,287.438,283.848Zm0-.83a1.18,1.18,0,0,0,1.065-.527,3.251,3.251,0,0,0,0-2.9,1.184,1.184,0,0,0-1.065-.523,1.172,1.172,0,0,0-1.057.523,3.323,3.323,0,0,0,0,2.9A1.164,1.164,0,0,0,287.438,283.018Z" transform="translate(-174.9 -166)" fill="#004e7a"/>
    <path id="Caminho_28809" data-name="Caminho 28809" d="M299.921,282.776a3.3,3.3,0,0,0,.621.183,3.409,3.409,0,0,0,.674.071,1.808,1.808,0,0,0,.456-.054,1.14,1.14,0,0,0,.382-.158.855.855,0,0,0,.259-.257.609.609,0,0,0,.1-.34.682.682,0,0,0-.078-.349.7.7,0,0,0-.21-.232,1.375,1.375,0,0,0-.3-.162,3.865,3.865,0,0,0-.37-.129l-.366-.141a2.573,2.573,0,0,1-.966-.569,1.16,1.16,0,0,1-.316-.83,1.4,1.4,0,0,1,.506-1.133,2.258,2.258,0,0,1,1.484-.415,4.218,4.218,0,0,1,.8.079,5,5,0,0,1,.682.187,2.513,2.513,0,0,1-.078.415,2.543,2.543,0,0,1-.14.39,4.678,4.678,0,0,0-.547-.162,2.772,2.772,0,0,0-.682-.083,1.6,1.6,0,0,0-.682.137.49.49,0,0,0-.3.486.652.652,0,0,0,.07.307.686.686,0,0,0,.2.212,1.266,1.266,0,0,0,.288.154l.349.129.46.154a3.688,3.688,0,0,1,.473.2,1.337,1.337,0,0,1,.382.29,1.247,1.247,0,0,1,.263.415,1.6,1.6,0,0,1,.1.593,1.63,1.63,0,0,1-.156.71,1.533,1.533,0,0,1-.444.548,2.091,2.091,0,0,1-.691.353,3.061,3.061,0,0,1-.9.125,5.39,5.39,0,0,1-.876-.066,4.189,4.189,0,0,1-.7-.187,2.227,2.227,0,0,1,.09-.415A4.136,4.136,0,0,1,299.921,282.776Z" transform="translate(-183.567 -166.031)" fill="#004e7a"/>
    <path id="Caminho_28810" data-name="Caminho 28810" d="M311.806,289.8c0-.1-.025-.2-.033-.29a2.218,2.218,0,0,1,0-.29,2.742,2.742,0,0,1,.033-.6l.288-.033h.58l.292.033.037.295v.589l-.037.295c-.1,0-.193.025-.288.029s-.189,0-.288,0H312.1A2.325,2.325,0,0,1,311.806,289.8Z" transform="translate(-190.692 -172.078)" fill="#004e7a"/>
  </g>
</svg>
