<svg xmlns="http://www.w3.org/2000/svg" width="101.37" height="49.812" viewBox="0 0 101.37 49.812">
  <g id="materias_svg-16" data-name="materias svg-16" transform="translate(0 0)">
    <path id="Caminho_28851" data-name="Caminho 28851" d="M25.742,77.06v2.422H21.207V92.844H18.735V79.482H14.16V77.06Z" transform="translate(-14.16 -64.651)" fill="#008dcb"/>
    <path id="Caminho_28852" data-name="Caminho 28852" d="M100.883,77.06V92.844H98.42V86.1H91.689v6.739H89.21V77.06h2.479v6.623H98.42V77.06Z" transform="translate(-75.998 -64.651)" fill="#008dcb"/>
    <path id="Caminho_28853" data-name="Caminho 28853" d="M174,79.465v4.218h6.107v2.38H174v4.385h7.4v2.4h-9.86V77.06h9.86v2.4Z" transform="translate(-143.835 -64.651)" fill="#008dcb"/>
    <path id="Caminho_28854" data-name="Caminho 28854" d="M247.641,86.587c1.73-.7,2.57-2.2,2.57-4.552,0-3.394-1.639-4.975-5.167-4.975H239.13V92.844h2.487V87.195h3.537l2.686,5.649h2.737Zm-6.024-7.123h3.427c1.873,0,2.641.741,2.641,2.57,0,1.936-.782,2.764-2.612,2.764h-3.456Z" transform="translate(-199.527 -64.651)" fill="#008dcb"/>
    <path id="Caminho_28855" data-name="Caminho 28855" d="M329.316,77.06V92.844h-2.487V81.012l-3.927,11.3H320.48l-3.912-11.291V92.844H314.09V77.06h3.586L321.7,88.767l4.037-11.707Z" transform="translate(-261.291 -64.651)" fill="#008dcb"/>
    <path id="Caminho_28856" data-name="Caminho 28856" d="M502.012,27.353A25.97,25.97,0,0,1,495,20c1.936-3.2,3.324-7.24,4.852-13.43,2.878,11.659,5.211,15.743,11.872,20.783-6.661,5.036-8.994,17.364-11.872,29.029-1.528-6.19-2.915-12.555-4.852-17.933,1.725-4.753,3.89-8.733,7.017-11.09Z" transform="translate(-410.353 -6.57)" fill="#004e7a"/>
    <path id="Caminho_28857" data-name="Caminho 28857" d="M411.832,6.57c1.526,6.19,2.9,10.233,4.859,13.43a26.123,26.123,0,0,1-7.02,7.353c3.128,2.362,5.3,6.337,7.02,11.09-1.949,5.378-3.327,11.744-4.853,17.933-2.88-11.664-5.214-23.991-11.877-29.029C406.618,22.313,408.945,18.229,411.832,6.57Z" transform="translate(-332.044 -6.57)" fill="#008dcb"/>
    <path id="Caminho_28858" data-name="Caminho 28858" d="M133.6,186.55v2.829h-4.294v12.9h-2.938v-12.9H122.03V186.55Z" transform="translate(-103.041 -154.867)" fill="#004e7a"/>
    <path id="Caminho_28859" data-name="Caminho 28859" d="M201.3,189.379v3.635h5.825V195.8H201.3v3.653h7.115v2.827H198.41V186.55h10.01v2.829Z" transform="translate(-165.975 -154.867)" fill="#004e7a"/>
    <path id="Caminho_28860" data-name="Caminho 28860" d="M274.08,198.117l.092,2.7-.342.076a25.849,25.849,0,0,1-4.235.528c-4.929,0-5.915-3.095-5.915-8.085,0-4.876,1.007-8.129,5.915-8.129a21.272,21.272,0,0,1,4.243.549l.334.083-.092,2.671-.467-.065a31.871,31.871,0,0,0-3.76-.368c-2.487,0-3.169,1.132-3.169,5.26s.655,5.213,3.213,5.213a33.82,33.82,0,0,0,3.727-.366Z" transform="translate(-219.755 -153.762)" fill="#004e7a"/>
    <path id="Caminho_28861" data-name="Caminho 28861" d="M346.444,186.55v15.733h-2.938v-6.547h-6.024v6.547H334.57V186.55h2.912v6.357h6.024V186.55Z" transform="translate(-278.165 -154.867)" fill="#004e7a"/>
    <path id="Caminho_28862" data-name="Caminho 28862" d="M418.563,194.446h-.373v.623h-.31V193.24h.692c.417,0,.62.176.62.59a.528.528,0,0,1-.29.528l.29.7h-.342l-.245-.616Zm.009-.91h-.382v.614h.386c.215,0,.3-.128.3-.315a.262.262,0,0,0-.3-.3Z" transform="translate(-346.81 -160.379)" fill="#004e7a"/>
    <path id="Caminho_28863" data-name="Caminho 28863" d="M412.24,190.827a1.625,1.625,0,1,1,.475,1.15A1.627,1.627,0,0,1,412.24,190.827Zm.259,0h0a1.368,1.368,0,1,0,1.366-1.368,1.368,1.368,0,0,0-1.366,1.368Z" transform="translate(-342.162 -157.05)" fill="#004e7a"/>
  </g>
</svg>
